PathFileType	4	(X/Y/Z)	pose_F01_0-83.trc
DataRate	CameraRate	NumFrames	NumMarkers	Units	OrigDataRate	OrigDataStartFrame	OrigNumFrames
30	30	5	21	m	30	0	83
Frame#	Time	CHip			RHip			RKnee			RAnkle			RBigToe			RSmallToe			RHeel			LHip			LKnee			LAnkle			LBigToe			LSmallToe			LHeel			Neck			Nose			RShoulder			RElbow			RWrist			LShoulder			LElbow			LWrist			
		X1	Y1	Z1	X2	Y2	Z2	X3	Y3	Z3	X4	Y4	Z4	X5	Y5	Z5	X6	Y6	Z6	X7	Y7	Z7	X8	Y8	Z8	X9	Y9	Z9	X10	Y10	Z10	X11	Y11	Z11	X12	Y12	Z12	X13	Y13	Z13	X14	Y14	Z14	X15	Y15	Z15	X16	Y16	Z16	X17	Y17	Z17	X18	Y18	Z18	X19	Y19	Z19	X20	Y20	Z20	X21	Y21	Z21	
0	0.0	-0.2365126341400002	1.8850504627727143	-0.5322885747766999	-0.24002716285297548	1.8809647002696128	-0.4627234495639911	-0.2586518641863836	1.7384516936525112	-0.4263893522523077	-0.26062044456000594	1.5648040557131373	-0.38941945343035084	-0.2384530369140503	1.5267633311866677	-0.41473252923580056	-0.24576750987055906	1.5236210137172674	-0.37327988470403417	-0.27178132935366006	1.5610962004670528	-0.3770436131293767	-0.22174660125408013	1.8883986458684587	-0.6038665473962267	-0.24107260895776972	1.7363373871407388	-0.5826182364535171	-0.26328475427363573	1.5805408852367562	-0.5514278599224661	-0.21894442779945947	1.55422712617028	-0.6049144771981474	-0.22978293740202632	1.5601199966280075	-0.620815283285024	-0.2631619271790735	1.5790702192537267	-0.5357321744917715	-0.242374395633477	2.0609414261049603	-0.5371928341223852	-0.2235587920571699	2.13844700982185	-0.5679691731656588	-0.2587697331847321	2.058314116199266	-0.4388647573674777	-0.24653642627075426	1.9697268092478382	-0.37550223803374283	-0.2398622532938703	1.900036840088036	-0.38436450778891584	-0.2250550527328291	2.0608936397504403	-0.6421044285866434	-0.2237881013623951	1.9796321732207471	-0.6823313521175657	-0.22188120485359117	1.9022055423284905	-0.6959802790416261
1	0.03333333333333333	-0.2363803813390114	1.886240677186785	-0.5324207668650772	-0.24070988108771038	1.883213350283531	-0.46613628246144034	-0.25797038910969977	1.7325552546758591	-0.4261937449552399	-0.26242248434293863	1.5695375503230204	-0.38819615505517957	-0.24110181004697356	1.5300059339300767	-0.41226388887479853	-0.248813733004796	1.5291991633386843	-0.37056079302150097	-0.2729599396500633	1.563751411753156	-0.380974615978662	-0.2215704496606102	1.8895322948243203	-0.6039425759772749	-0.24054102848103506	1.7351649121890074	-0.5830082820751202	-0.2599373962329215	1.5843663237123906	-0.555960700197099	-0.22137525266669406	1.5533226510387739	-0.606907173842501	-0.2304118614183872	1.5614587595356935	-0.6245963234956712	-0.2638533930473919	1.5776785571289516	-0.5389167800869101	-0.24033308009941873	2.0633113686104982	-0.5398519779060733	-0.22349006747501807	2.1418120513696244	-0.5690086269383227	-0.25480250204025945	2.0615398455420912	-0.44367054370224435	-0.24402362195104102	1.975770988309558	-0.36185934123087515	-0.23512446657086	1.904787659253699	-0.378099227417093	-0.2249492898796695	2.0641738019739284	-0.6424167507259164	-0.22675967504503583	1.9818811197272075	-0.6836604563668232	-0.21989120977417176	1.9052348752109423	-0.710302650475048
2	0.06666666666666667	-0.2362481285380226	1.8874308916008558	-0.5325529589534546	-0.24139259932244528	1.8854620002974494	-0.4695491153588896	-0.25728891403301596	1.726658815699207	-0.42599813765817207	-0.26422452412587133	1.5742710449329036	-0.3869728566800083	-0.24375058317989684	1.5332485366734856	-0.4097952485137965	-0.25185995613903295	1.5347773129601012	-0.36784170133896776	-0.2741385499464666	1.566406623039259	-0.3849056188279473	-0.22139429806714028	1.8906659437801818	-0.604018604558323	-0.2400094480043004	1.733992437237276	-0.5833983276967234	-0.25659003819220727	1.588191762188025	-0.5604935404717318	-0.22380607753392864	1.5524181759072677	-0.6088998704868547	-0.2310407854347481	1.5627975224433794	-0.6283773637063184	-0.26454485891571033	1.5762868950041764	-0.5421013856820488	-0.23829176456536044	2.065681311116036	-0.5425111216897615	-0.22342134289286622	2.1451770929173986	-0.5700480807109866	-0.2508352708957868	2.0647655748849165	-0.448476330037011	-0.24151081763132778	1.9818151673712778	-0.3482164444280075	-0.23038667984784972	1.9095384784193619	-0.3718339470452702	-0.2248435270265099	2.0674539641974166	-0.6427290728651894	-0.22973124872767656	1.9841300662336678	-0.6849895606160806	-0.21790121469475235	1.908264208093394	-0.72462502190847
3	0.1	-0.23500743179171885	1.8911539686839467	-0.5299174749932678	-0.2403384611882975	1.8880638092035913	-0.4667618503486462	-0.25604486453887754	1.7277132002418327	-0.4231862132136644	-0.2639144254651004	1.5743990498170921	-0.38813061789371867	-0.24499845812152535	1.532943887752952	-0.399612665601082	-0.25251857879509976	1.5360071122036507	-0.36279180832611985	-0.2739171426282496	1.5666061264276288	-0.3904909080909507	-0.2181480211829586	1.8944208084991054	-0.6037042693706604	-0.23857617402861017	1.734051500826272	-0.5805323305927886	-0.2543452396764927	1.5907146502891434	-0.5632640866144899	-0.22816740467823277	1.5542131859979063	-0.6002653138403226	-0.2327604666012824	1.5650061394952086	-0.6230027407349339	-0.2622269231394982	1.5802782840889114	-0.5453909817165822	-0.23615808607922012	2.0660509536388934	-0.5446088697224324	-0.219617181671449	2.1439929689286674	-0.5655080118572056	-0.24581370318948836	2.065567961328293	-0.44882101187094464	-0.24666065692217667	1.9850752600374078	-0.33359073177591786	-0.22637089062561505	1.9212636098733031	-0.3633781534835373	-0.2218103407449333	2.068381876782974	-0.6418458608905762	-0.2286015178309422	1.9875238913769409	-0.6824161608322502	-0.20908171035899675	1.9200195390605137	-0.7381788394566496
4	0.13333333333333333	-0.23491801654065678	1.8923145120567373	-0.5299362416165411	-0.2421124488239611	1.889047948519937	-0.46470880736962505	-0.25508920809032226	1.7270207653107694	-0.42865704566373014	-0.2639732971166263	1.5725549070571712	-0.3872705038413012	-0.24311885625231575	1.5304887372507223	-0.41009748829661596	-0.24940476274579207	1.531937565414524	-0.3702025544585199	-0.27376640751254205	1.5639745342856102	-0.38506073831658716	-0.22009959319242933	1.895435256067453	-0.601554504935963	-0.23870451633311052	1.7350284113514869	-0.5805606842820912	-0.2539904463900991	1.588804188114711	-0.5635338880033463	-0.2287825585377982	1.552834921719294	-0.6034449366009794	-0.23020604480612147	1.5629891320380367	-0.6251581194612877	-0.2617910263087855	1.5779682977856169	-0.5456151847014244	-0.2330869288670778	2.0670273746213965	-0.5436232010685386	-0.21954158043699576	2.145162905219228	-0.5652672752096802	-0.2465550115421381	2.0660131910231563	-0.4427146420759633	-0.25113449410914374	1.9896497453848203	-0.33322061967515504	-0.22113781210753772	1.9283065908002142	-0.34863323432649135	-0.21669216391033716	2.068269857809254	-0.6432002758969046	-0.22327643558397642	1.9873263677511979	-0.6833897255811012	-0.2053638327779691	1.9233274971920837	-0.7461035224356469
